<svg id="Layer_3" data-name="Layer 3" xmlns="http://www.w3.org/2000/svg" xmlns:xlink="http://www.w3.org/1999/xlink" viewBox="0 0 251.33 254.46">
	<defs>
		<clipPath id="clip-path">
			<path d="M196.46,246.15H57c-9.81,0-17.76-11.29-17.76-21.11L85.47,94.88c.78-2.75,3.75-5.17,8.37-5.17h65.75A8.76,8.76,0,0,1,168,94.88L214.23,225C214.23,234.86,206.27,246.15,196.46,246.15Z" fill="none"/>
		</clipPath>
		<linearGradient id="New_Gradient_Swatch_6" x1="122.52" y1="152.63" x2="131.73" y2="178.95" gradientUnits="userSpaceOnUse">
			<stop offset="0" stop-color="#05eaa0"/>
			<stop offset="1" stop-color="#007cae"/>
		</linearGradient>
		<linearGradient id="linear-gradient" x1="56.31" y1="172.3" x2="198.88" y2="250.83" xlink:href="#New_Gradient_Swatch_6"/>
	</defs>
	<title>siteIcon</title>
	<rect width="251.33" height="251.33" fill="#37445c"/>
	<path d="M196.46,246.15H57c-9.81,0-17.76-11.29-17.76-21.11L85.47,94.88c.78-2.75,3.75-5.17,8.37-5.17h65.75A8.76,8.76,0,0,1,168,94.88L214.23,225C214.23,234.86,206.27,246.15,196.46,246.15Z" fill="#bcc0cf" stroke="#283247" stroke-miterlimit="10" stroke-width="4"/>
	<rect x="104.78" y="64.16" width="43.87" height="34.98" fill="#bcc0cf"/>
	<path d="M139,54.93H114.62c-5.2,0-9.41-3.35-9.41-7.48l-2.7-36a6.63,6.63,0,0,1,6.63-6.63h35.31a6.63,6.63,0,0,1,6.64,6.63l-2.71,36C148.38,51.58,144.17,54.93,139,54.93Z" fill="#ad7165" stroke="#283247" stroke-miterlimit="10" stroke-width="4"/>
	<g id="cork_holes" data-name="cork holes">
		<circle cx="106.49" cy="19.68" r="3.04" fill="none" stroke="#283247" stroke-miterlimit="10" stroke-width="2"/>
		<circle cx="142.22" cy="15.16" r="2.06" fill="#283247"/>
		<circle cx="118.87" cy="25.36" r="2.06" fill="#283247"/>
		<circle cx="134.89" cy="32.35" r="2.95" fill="#283247"/>
		<circle cx="131.94" cy="17.22" r="1.4" fill="#283247"/>
	</g>
	<rect x="92.12" y="28.19" width="69.36" height="35.97" rx="4.02" ry="4.02" fill="#bcc0cf" stroke="#283247" stroke-miterlimit="10" stroke-width="4"/>
	<g clip-path="url(#clip-path)">
		<path d="M188.35,152.26c0-9.44-20.9-15.33-43.57-11s-37,24.37-74.57,11,29.31,78.29,29.31,78.29S188.35,161.69,188.35,152.26Z" stroke="#283247" stroke-miterlimit="10" stroke-width="4" fill="url(#New_Gradient_Swatch_6)"/>
		<path d="M232.87,231.84l-4.64,11.75-10.93,8.86-195-1.93-9.14-6.39L9.48,229.87l56.26-90.81S34,159.08,68.19,145s42.51,20.21,77.61,25.34,40.71-23.28,40.71-23.28L223,199.6Z" stroke="#283247" stroke-miterlimit="10" stroke-width="4" fill="url(#linear-gradient)"/>
		<g id="bubbles">
			<circle cx="79.53" cy="162.82" r="3.62" fill="none" stroke="#283247" stroke-miterlimit="10" stroke-width="2"/>
			<circle cx="149.46" cy="228.66" r="3.62" fill="none" stroke="#283247" stroke-miterlimit="10" stroke-width="2"/>
			<circle cx="66.04" cy="200.57" r="5.29" fill="none" stroke="#283247" stroke-miterlimit="10" stroke-width="2"/>
			<circle cx="96.92" cy="167.93" r="3.1" fill="none" stroke="#283247" stroke-miterlimit="10" stroke-width="2"/>
			<circle cx="184.94" cy="195.71" r="4.37" fill="none" stroke="#283247" stroke-miterlimit="10" stroke-width="2"/>
			<circle cx="145.84" cy="182.76" r="2.01" fill="#283247"/>
			<circle cx="178.56" cy="176.75" r="2.01" fill="#283247"/>
			<circle cx="77.92" cy="234.14" r="2.01" fill="#283247"/>
			<circle cx="111.46" cy="210.44" r="2.81" fill="#283247"/>
			<circle cx="177.76" cy="232.13" r="2.81" fill="#283247"/>
			<circle cx="105.84" cy="202.89" r="1.53" fill="#283247"/>
			<circle cx="175.97" cy="213" r="1.53" fill="#283247"/>
			<circle cx="122.95" cy="173.6" r="2.32" fill="#283247"/>
			<circle cx="159.14" cy="150.24" r="2.75" fill="#283247"/>
			<circle cx="149.46" cy="209.38" r="3.62" fill="#283247"/>
			<circle cx="142.14" cy="156.38" r="1.08" fill="#283247"/>
			<circle cx="173.4" cy="153.53" r="1.77" fill="#283247"/>
		</g>
	</g>
	<path d="M196.46,246.15H57c-9.81,0-17.76-11.29-17.76-21.11L85.47,94.88c.78-2.75,3.75-5.17,8.37-5.17h65.75A8.76,8.76,0,0,1,168,94.88L214.23,225C214.23,234.86,206.27,246.15,196.46,246.15Z" fill="none" stroke="#283247" stroke-miterlimit="10" stroke-width="4"/>
	<path d="M214.22,225c0,9.82-7.94,21.12-17.76,21.12H57c-9.8,0-17.77-11.3-17.77-21.12L85.46,94.88c.78-2.76,3.76-5.17,8.37-5.17h11V64.16h43.87V89.71h10.93A8.8,8.8,0,0,1,168,94.88Z" fill="none" stroke="#283247" stroke-miterlimit="10" stroke-width="4"/>
	<path d="M157.3,246.15H96.12c-4.3,0-7.79-11.29-7.79-21.11l23.91-113.72c3.34-.88.45-.88,2.18-.88H139c1.73,0-.62,0,2.33,1.37L165.1,225C165.1,234.86,161.61,246.15,157.3,246.15Z" fill="none" stroke="#283247" stroke-miterlimit="10" stroke-width="4"/>
	<line x1="39.2" y1="225.04" x2="214.23" y2="225.04" fill="none" stroke="#283247" stroke-miterlimit="10" stroke-width="4"/>
	<line x1="173.49" y1="110.44" x2="80.1" y2="110.44" fill="none" stroke="#283247" stroke-miterlimit="10" stroke-width="4"/>
</svg>